Ripper                           : Rahul
Source                           : Drc
Complete name                    : Agni Sakshi ( 1996 )
Format                           : Matroska
File size                        : 1.42 GiB
Duration                         : 2h 21mn
Overall bit rate                 : 1 432 Kbps
Writing library                  : libmkv 0.6.4.1

Video
ID                               : 1
Format                           : AVC
Format/Info                      : Advanced Video Codec
Format profile                   : High@L3.0
Format settings, CABAC           : Yes
Format settings, ReFrames        : 4 frames
Format settings, GOP             : M=1, N=4
Codec ID                         : V_MPEG4/ISO/AVC
Duration                         : 2h 21mn
Bit rate                         : 956 Kbps
Nominal bit rate                 : 1 202 Kbps
Width                            : 720 pixels
Height                           : 384 pixels
Display aspect ratio             : 1.875
Frame rate                       : 23.976 fps
Color space                      : YUV
Chroma subsampling               : 4:2:0
Bit depth                        : 8 bits
Scan type                        : Progressive
Bits/(Pixel*Frame)               : 0.144
Stream size                      : 971 MiB (67%)
Writing library                  : x264 core 112

Audio
ID                               : 2
Format                           : AC-3
Format/Info                      : Audio Coding 3
Mode extension                   : CM (complete main)
Codec ID                         : A_AC3
Duration                         : 2h 21mn
Bit rate mode                    : Constant
Bit rate                         : 448 Kbps
Channel(s)                       : 6 channels
Channel positions                : Front: L C R, Side: L R, LFE
Sampling rate                    : 48.0 KHz
Bit depth                        : 16 bits
Compression mode                 : Lossy
Stream size                      : 455 MiB (31%)  

Screens: 
http://i887.photobucket.com/albums/ac76/desiess/Punjabi/1-35.jpg 
http://i887.photobucket.com/albums/ac76/desiess/Punjabi/2-35.jpg 
http://i887.photobucket.com/albums/ac76/desiess/Punjabi/3-36.jpg 
http://i887.photobucket.com/albums/ac76/desiess/Punjabi/4-34.jpg 
http://i887.photobucket.com/albums/ac76/desiess/Punjabi/5-35.jpg 
http://i887.photobucket.com/albums/ac76/desiess/Punjabi/5-35.jpg 
http://i887.photobucket.com/albums/ac76/desiess/Punjabi/7-33.jpg 
http://i887.photobucket.com/albums/ac76/desiess/Punjabi/9-24.jpg 
http://i887.photobucket.com/albums/ac76/desiess/Punjabi/10-19.jpg

CREDITS TO PNJABIBoY and team MTR

SAmPLE:

~ Seed 4 others,Others would seed 4 u ~
         Be a Gentleman!!

    ______            ______   _______    
   (  __  \\ |\\     /|(  __  \\ (  ____ \\   
   | (  \\  )| )   ( || (  \\  )| (    \\/   
   | |   ) || |   | || |   ) || (__       
   | |   | || |   | || |   | ||  __)      
   | |   ) || |   | || |   ) || (         
 _ | (__/  )| (___) || (__/  )| (____/\\ _ 
(_)(______/ (_______)(______/ (_______/(_)


A simple THANKS goes a long way... :-)
Any comments would b appreciated.
